# Blender 4.0.2
# www.blender.org
mtllib joya.mtl
o diamond
v -0.553520 2.078451 0.001625
v -0.392662 2.078386 0.393488
v -0.390129 2.078510 -0.389306
v -0.001798 2.078337 0.556975
v 0.001798 2.078497 -0.550155
v 0.390047 2.078349 0.396205
v 0.392663 2.078537 -0.386690
v 0.553521 2.078383 0.005195
v 0.660793 1.953879 0.279706
v 1.043069 1.627967 0.006851
v 0.662618 1.953990 -0.268469
v 0.740041 1.628095 -0.731680
v 0.276296 1.953978 -0.657302
v 0.003491 1.628151 -1.039641
v -0.271853 1.954052 -0.659208
v 0.735043 1.627865 0.743325
v 0.271853 1.953867 0.666000
v -0.735043 1.628088 -0.736606
v -0.660793 1.953950 -0.272894
v -1.043069 1.627987 -0.000133
v -0.662617 1.953927 0.275260
v -0.740040 1.627860 0.738399
v -0.276295 1.953852 0.664115
v -0.003490 1.627801 1.046361
v -0.000024 0.589373 0.003305
v 0.288592 1.248394 -0.699943
v 0.703285 1.248327 -0.285068
v 0.706226 1.253047 0.299454
v 0.291670 1.249043 0.706378
v -0.285313 1.249287 0.709477
v -0.701686 1.251845 0.307527
v -0.705241 1.249511 -0.284669
v -0.290505 1.250838 -0.702384
v -0.000002 2.078438 0.003411
vn 0.6771 0.7359 0.0024
vn 0.4803 0.7359 -0.4772
vn 0.0025 0.7359 -0.6771
vn 0.4772 0.7358 0.4805
vn -0.4773 0.7359 -0.4803
vn -0.6771 0.7359 -0.0022
vn -0.4803 0.7358 0.4773
vn -0.0023 0.7357 0.6773
vn 0.7369 0.6047 -0.3023
vn 0.3024 0.6044 0.7370
vn 0.7348 0.6046 0.3074
vn 0.3072 0.6049 -0.7347
vn -0.3024 0.6047 -0.7368
vn -0.7348 0.6047 -0.3073
vn -0.7369 0.6046 0.3025
vn -0.3072 0.6045 0.7349
vn 0.4805 0.8546 -0.1969
vn 0.4791 0.8546 0.2004
vn 0.2004 0.8544 -0.4794
vn -0.1972 0.8546 -0.4805
vn 0.1972 0.8545 0.4806
vn -0.2004 0.8544 0.4794
vn -0.4804 0.8546 0.1973
vn -0.4793 0.8545 -0.2002
vn 0.3400 -0.4722 -0.8133
vn 0.8154 -0.4725 -0.3346
vn 0.8159 -0.4668 0.3412
vn 0.3348 -0.4714 0.8159
vn -0.3403 -0.4710 0.8139
vn -0.8177 -0.4678 0.3354
vn -0.8140 -0.4706 -0.3405
vn -0.3352 -0.4691 -0.8170
vn 0.5255 -0.6666 0.5288
vn 0.4826 -0.7297 0.4844
vn 0.0037 -0.6664 0.7456
vn 0.0034 -0.7299 0.6835
vn -0.5203 -0.6658 0.5347
vn -0.4770 -0.7300 0.4895
vn -0.7434 -0.6689 0.0071
vn -0.6849 -0.7286 0.0070
vn -0.5268 -0.6684 -0.5251
vn -0.4847 -0.7288 -0.4836
vn 0.0003 -0.6666 -0.7454
vn -0.0002 -0.7296 -0.6838
vn 0.5257 -0.6689 -0.5255
vn 0.4843 -0.7287 -0.4842
vn 0.7445 -0.6676 0.0016
vn 0.6843 -0.7292 0.0024
vn 0.0001 1.0000 0.0001
vn -0.0001 1.0000 0.0001
vn 0.0001 1.0000 0.0004
vn -0.0000 1.0000 0.0002
vn 0.0001 1.0000 0.0002
vt 0.808590 -0.622070
vt 0.988280 -0.499020
vt 0.810550 -0.374020
vt 0.750980 -0.497070
vt 0.847660 -0.164060
vt 0.630860 -0.196290
vt 0.678710 -0.325200
vt 0.503910 -0.022460
vt 0.374020 -0.194340
vt 0.501950 -0.251950
vt 0.842770 -0.833010
vt 0.676760 -0.668950
vt 0.625980 -0.796880
vt 0.157230 -0.158200
vt 0.191410 -0.369140
vt 0.323240 -0.322270
vt 0.012700 -0.492190
vt 0.189450 -0.618160
vt 0.249020 -0.494140
vt 0.152340 -0.828130
vt 0.369140 -0.794920
vt 0.321290 -0.666990
vt 0.496090 -0.968750
vt 0.498050 -0.739260
vt 0.673030 -0.092130
vt 0.918020 -0.331650
vt 0.915350 -0.666420
vt 0.671170 -0.900200
vt 0.329430 -0.900570
vt 0.085950 -0.668410
vt 0.083480 -0.328620
vt 0.330140 -0.090500
vt 0.366980 -0.364780
vt 0.501130 -0.312050
vt 0.634950 -0.366500
vt 0.689670 -0.497070
vt 0.633020 -0.626430
vt 0.498870 -0.679570
vt 0.365050 -0.624870
s 0
usemtl mat1
f 9/1/1 10/2/1 11/3/1 8/4/1
f 11/3/2 12/5/2 13/6/2 7/7/2
f 13/6/3 14/8/3 15/9/3 5/10/3
f 16/11/4 9/1/4 6/12/4 17/13/4
f 15/9/5 18/14/5 19/15/5 3/16/5
f 19/15/6 20/17/6 21/18/6 1/19/6
f 21/18/7 22/20/7 23/21/7 2/22/7
f 23/21/8 24/23/8 17/13/8 4/24/8
f 12/5/9 11/3/9 10/2/9
f 16/11/10 17/13/10 24/23/10
f 10/2/11 9/1/11 16/11/11
f 14/8/12 13/6/12 12/5/12
f 15/9/13 14/8/13 18/14/13
f 20/17/14 19/15/14 18/14/14
f 22/20/15 21/18/15 20/17/15
f 24/23/16 23/21/16 22/20/16
f 8/4/17 11/3/17 7/7/17
f 6/12/18 9/1/18 8/4/18
f 7/7/19 13/6/19 5/10/19
f 5/10/20 15/9/20 3/16/20
f 4/24/21 17/13/21 6/12/21
f 2/22/22 23/21/22 4/24/22
f 1/19/23 21/18/23 2/22/23
f 3/16/24 19/15/24 1/19/24
f 26/25/25 14/8/25 12/5/25
f 27/26/26 12/5/26 10/2/26
f 28/27/27 10/2/27 16/11/27
f 29/28/28 16/11/28 24/23/28
f 30/29/29 24/23/29 22/20/29
f 31/30/30 22/20/30 20/17/30
f 32/31/31 20/17/31 18/14/31
f 33/32/32 18/14/32 14/8/32
f 28/27/33 16/11/33 29/28/33
f 25/2/34 28/27/34 29/28/34
f 29/28/35 24/23/35 30/29/35
f 25/2/36 29/28/36 30/29/36
f 30/29/37 22/20/37 31/30/37
f 31/30/38 25/2/38 30/29/38
f 31/30/39 20/17/39 32/31/39
f 32/31/40 25/2/40 31/30/40
f 32/31/41 18/14/41 33/32/41
f 33/32/42 25/2/42 32/31/42
f 33/32/43 14/8/43 26/25/43
f 26/25/44 25/2/44 33/32/44
f 26/25/45 12/5/45 27/26/45
f 27/26/46 25/2/46 26/25/46
f 27/26/47 10/2/47 28/27/47
f 28/27/48 25/2/48 27/26/48
f 5/10/49 3/16/49 34/33/49
f 7/7/50 5/10/50 34/34/50
f 8/4/51 7/7/51 34/35/51
f 6/12/49 8/4/49 34/36/49
f 4/24/52 6/12/52 34/37/52
f 2/22/53 4/24/53 34/38/53
f 1/19/52 2/22/52 34/39/52
f 34/33/52 3/16/52 1/19/52
o base
v -0.288592 1.252272 0.706663
v -0.000788 0.392235 0.004255
v -0.706226 1.256926 -0.292733
v 0.285314 1.253166 -0.702756
v 0.705241 1.253390 0.291389
v -0.129413 0.402313 0.317320
v -0.157191 0.242401 0.067169
v -0.315785 0.403685 -0.130682
v -0.065449 0.243134 -0.155069
v 0.128363 0.402408 -0.314742
v 0.157256 0.243363 -0.065118
v 0.316856 0.402403 0.130822
v 0.065140 0.242755 0.159933
v 0.000788 0.061665 0.001776
v -0.204454 0.345492 0.498098
v -0.679829 0.073294 0.283090
v -0.496006 0.346278 -0.206366
v -0.284112 0.077652 -0.678136
v 0.201641 0.345055 -0.496223
v 0.679333 0.077829 -0.287830
v 0.498285 0.344829 0.204190
v 0.281233 0.074811 0.683026
vn 0.2580 0.8366 -0.4833
vn -0.5512 -0.8070 0.2120
vn -0.5214 0.8386 -0.1577
vn 0.5362 -0.8082 -0.2437
vn 0.4827 0.8400 0.2478
vn -0.2142 -0.8093 -0.5469
vn 0.1573 0.8418 -0.5164
vn 0.2458 -0.8112 0.5306
vn -0.2473 0.8402 0.4825
vn 0.5467 -0.8108 -0.2094
vn 0.5227 0.8369 0.1625
vn -0.5404 -0.8070 0.2380
vn -0.4847 0.8372 -0.2534
vn 0.2135 -0.8074 0.5500
vn -0.1653 0.8365 0.5225
vn -0.2368 -0.8080 -0.5396
vn 0.2992 -0.3070 0.9034
vn -0.6892 0.3543 0.6321
vn 0.9330 0.3559 -0.0534
vn 0.4337 -0.3069 0.8472
vn -0.9054 -0.3049 0.2954
vn -0.6233 0.3589 -0.6948
vn 0.0384 0.3525 0.9350
vn -0.8489 -0.3067 0.4305
vn -0.2825 -0.3022 -0.9104
vn 0.6993 0.3580 -0.6188
vn -0.9347 0.3518 0.0501
vn -0.4460 -0.3020 -0.8426
vn 0.9054 -0.3028 -0.2977
vn 0.6346 0.3535 0.6872
vn -0.0655 0.3635 -0.9293
vn 0.8443 -0.3018 -0.4428
vt 0.733065 0.765980
vt 1.070154 0.601439
vt 0.491690 0.815124
vt 1.070688 0.371158
vt 0.735935 0.207089
vt 0.245990 0.205424
vt -0.097357 0.371636
vt -0.095006 0.602693
vt 0.250359 0.767779
s 0
usemtl mat2
f 42/40/54 43/41/54 52/41/54 51/40/54
f 48/42/55 51/40/55 52/41/55
f 43/41/56 44/43/56 53/43/56 52/41/56
f 48/42/57 52/41/57 53/43/57
f 44/43/58 45/44/58 54/44/58 53/43/58
f 54/44/59 48/42/59 53/43/59
f 45/44/60 46/45/60 55/45/60 54/44/60
f 55/45/61 48/42/61 54/44/61
f 46/45/62 47/46/62 56/46/62 55/45/62
f 56/46/63 48/42/63 55/45/63
f 47/46/64 40/47/64 49/47/64 56/46/64
f 49/47/65 48/42/65 56/46/65
f 40/47/66 41/48/66 50/48/66 49/47/66
f 50/48/67 48/42/67 49/47/67
f 41/48/68 42/40/68 51/40/68 50/48/68
f 51/40/69 48/42/69 50/48/69
f 47/46/70 46/45/70 39/45/70
f 39/45/71 36/46/71 47/46/71
f 47/46/72 36/46/72 35/47/72
f 35/47/73 40/47/73 47/46/73
f 41/48/74 40/47/74 35/47/74
f 35/47/75 36/48/75 41/48/75
f 41/48/76 36/48/76 37/40/76
f 37/40/77 42/40/77 41/48/77
f 43/41/78 42/40/78 37/40/78
f 37/40/79 36/41/79 43/41/79
f 43/41/80 36/41/80 38/43/80
f 38/43/81 44/43/81 43/41/81
f 45/44/82 44/43/82 38/43/82
f 38/43/83 36/44/83 45/44/83
f 45/44/84 36/44/84 39/45/84
f 39/45/85 46/45/85 45/44/85
