# Blender 4.0.2
# www.blender.org
mtllib sonic_brazo_derecho.mtl
o brazo_derecho
v -0.006037 -0.012302 0.012706
v -0.061205 -0.046511 0.011272
v 0.633609 -0.423287 -0.254452
v 0.452013 -0.507977 -0.259757
v 0.962942 -0.799105 -0.468590
v 0.714338 -0.840570 -0.438366
v 1.099384 -1.216427 -0.631250
v 0.782179 -1.190527 -0.550964
v 1.093520 -1.701364 -0.749049
v 0.721856 -1.621861 -0.632041
v 0.834520 -2.182768 -0.773030
v 0.523067 -1.970339 -0.641517
v 0.685767 -2.111595 -1.119868
v 0.954422 -1.638708 -1.072181
v 1.043014 -1.135062 -0.939910
v 0.909281 -0.692025 -0.733247
v 0.591083 -0.316936 -0.431753
v 0.014786 0.017571 -0.034038
v -0.067711 -0.020386 -0.050439
v 0.414548 -0.415041 -0.422258
v 0.616868 -0.753096 -0.630459
v 0.687603 -1.116104 -0.797138
v 0.611357 -1.570194 -0.912108
v 0.416361 -1.916048 -0.931859
v -0.707246 -2.854478 -0.513069
v -0.458698 -2.950683 -0.460061
v -0.377441 -2.389683 -0.476411
v -0.173121 -2.529554 -0.399576
v 0.007681 -2.215162 -0.678606
v 0.442234 -2.519202 -0.596863
v 0.698276 -2.386895 -0.845369
v 0.946753 -2.883079 -0.915583
v 0.820316 -2.336498 -1.101624
v 0.868292 -2.925465 -1.275030
v 0.919051 -2.562376 -0.778412
v 0.540200 -2.413615 -0.468599
v 0.881099 -2.444189 -1.197213
v 0.486952 -2.244731 -1.305751
v 0.097721 -2.086283 -1.065715
v 0.147292 -2.205075 -0.563569
v 0.683287 -1.759961 -1.263672
v 1.105366 -1.998600 -1.137109
v 1.164604 -2.109881 -0.673633
v 0.395387 -3.756160 -1.114923
v 0.415585 -3.976677 -0.648002
v 0.392747 -3.960003 -1.231631
v 0.455788 -4.088655 -0.750297
v 0.504395 -3.955716 -1.186556
v 0.679109 -3.643774 -1.299338
v 0.363674 -3.546461 -1.282693
v 0.285330 -3.634923 -1.647570
v 0.580254 -3.648026 -1.555644
v 0.625616 -3.811793 -1.085307
v 0.585858 -3.981277 -0.642064
v -0.497086 -3.208763 -1.161132
v -0.277901 -2.733397 -0.872409
v -0.203595 -2.353204 -1.058688
v 0.363537 -2.206633 -0.882505
v 0.386539 -2.599180 -1.467400
v 0.019439 -3.851594 -1.193264
v 0.288783 -3.916638 -1.206214
v 0.253086 -4.046766 -0.635204
v 0.105595 -4.182363 -0.712253
v 0.041293 -4.003562 -0.639761
v 0.027943 -4.025896 -1.310975
v 0.026847 -3.444388 -1.349390
v 0.215233 -4.046596 -1.330915
v 0.006398 -3.571697 -1.630421
v -0.165909 -3.951675 -1.396736
v -0.084816 -3.851733 -1.187302
v -0.107538 -4.062571 -0.696256
v -0.333440 -3.795871 -1.166378
v -0.324488 -3.973407 -0.684906
v -0.353288 -3.915089 -1.366634
v -0.275220 -4.163834 -0.729276
v -0.467670 -2.453697 -0.728895
v -0.646126 -3.009613 -0.753551
v -0.350729 -3.371652 -1.575161
v 0.732812 -1.998072 -0.356428
v 0.283469 -1.746978 -0.500832
v 0.254035 -1.640257 -0.989085
v -0.243479 -3.389710 -1.308309
v -0.535855 -3.764068 -1.245643
v -0.668339 -3.654517 -1.171791
v -0.527947 -3.258207 -1.444941
v -0.613758 -3.592961 -0.984319
v -0.425221 -3.746893 -1.174938
v -0.617512 -3.843509 -0.648881
v -0.637882 -3.954427 -0.737122
v -0.487817 -3.933465 -0.749114
v -0.006037 -0.012302 0.012706
v -0.061205 -0.046511 0.011272
v 0.633609 -0.423287 -0.254452
vn 0.5964 0.2270 0.7699
vn -0.9754 0.0256 0.2190
vn -0.4166 -0.6839 0.5990
vn 0.7490 0.1498 0.6455
vn -0.4468 -0.4534 0.7712
vn 0.8630 -0.0191 0.5048
vn -0.4364 -0.2573 0.8622
vn 0.8866 -0.2547 0.3861
vn -0.4065 0.0159 0.9135
vn 0.8280 -0.4556 0.3268
vn -0.3632 0.1474 0.9200
vn 0.3233 -0.0869 -0.9423
vn 0.4240 0.0773 -0.9024
vn 0.5074 0.3487 -0.7880
vn 0.4196 0.6437 -0.6400
vn 0.3155 0.8473 -0.4272
vn -0.1217 0.8900 0.4394
vn 0.0626 0.9902 -0.1248
vn -0.8931 0.2816 -0.3509
vn -0.7355 -0.0628 -0.6746
vn -0.8657 -0.0215 -0.5001
vn -0.8806 0.1354 -0.4540
vn -0.8400 0.3906 -0.3765
vn -0.7887 0.4766 -0.3884
vn -0.9063 -0.0983 0.4111
vn 0.2185 -0.7276 0.6503
vn -0.4109 0.6758 0.6120
vn 0.2875 -0.1246 0.9496
vn -0.0326 0.9459 0.3229
vn 0.3035 -0.0168 0.9527
vn 0.6649 0.3470 0.6614
vn 0.6857 -0.2514 0.6831
vn 0.7367 0.6031 -0.3058
vn 0.8713 0.0191 -0.4903
vn 0.3603 -0.9174 0.1690
vn -0.1766 -0.7464 0.6416
vn 0.2962 -0.7203 -0.6273
vn -0.3326 -0.4459 -0.8310
vn -0.8813 -0.2218 -0.4173
vn -0.7911 -0.4124 0.4518
vn 0.1915 0.7100 -0.6776
vn 0.8097 0.3596 -0.4637
vn 0.9113 0.1686 0.3757
vn -0.5403 0.2303 0.8094
vn -0.6690 0.5230 0.5281
vn -0.5699 -0.7435 -0.3498
vn -0.2396 -0.9622 0.1298
vn 0.4807 -0.7963 -0.3673
vn 0.8895 -0.3653 0.2746
vn -0.2063 -0.1772 0.9623
vn 0.1486 -0.3327 -0.9313
vn 0.5878 -0.3800 -0.7142
vn 0.9529 0.1490 0.2641
vn 0.7655 0.0350 0.6425
vn -0.6386 0.1075 0.7620
vn -0.1644 -0.9820 0.0933
vn -0.4967 0.7185 -0.4869
vn 0.1141 0.9935 0.0051
vn 0.0819 0.4859 -0.8702
vn 0.9529 0.0313 0.3016
vn -0.7918 0.3587 0.4943
vn 0.7521 0.1334 0.6454
vn -0.1831 -0.9076 0.3778
vn -0.5690 0.3914 0.7232
vn -0.6812 -0.6386 -0.3579
vn -0.0771 -0.2910 0.9536
vn 0.4193 -0.7816 -0.4618
vn -0.1578 -0.2593 -0.9528
vn 0.2365 -0.7964 -0.5565
vn 0.9036 -0.1680 0.3940
vn 0.7773 -0.1323 0.6151
vn -0.7057 0.4489 0.5482
vn -0.5445 0.4630 0.6994
vn -0.7933 -0.4433 -0.4173
vn -0.3286 -0.8596 0.3913
vn -0.7508 0.6272 -0.2074
vn -0.4738 -0.7237 -0.5018
vn -0.4182 0.0005 -0.9084
vn 0.3376 0.3360 0.8793
vn -0.3628 0.6890 0.6274
vn -0.4440 0.8636 -0.2391
vn 0.1588 -0.2548 0.9539
vn -0.1497 -0.7574 -0.6355
vn -0.9511 -0.1225 -0.2836
vn -0.8143 0.2461 -0.5256
vn -0.3894 0.6080 0.6919
vn 0.8678 -0.4905 0.0797
vn -0.2154 0.3426 0.9145
vn -0.5550 -0.7741 0.3046
vn 0.8065 -0.4639 0.3665
vn 0.1888 -0.3631 0.9124
vn 0.1872 -0.3219 0.9281
vn 0.1581 -0.3135 0.9363
vt 0.188235 0.937255
vt 0.250980 1.000000
vt 0.250980 0.937255
vt 0.188235 0.898039
vt 0.250980 0.898039
vt 0.188235 0.854902
vt 0.250980 0.854902
vt 0.188235 0.807843
vt 0.250980 0.807843
vt 0.188235 0.752941
vt 0.250980 0.752941
vt 0.125490 0.752941
vt 0.125490 0.807843
vt 0.125490 0.854902
vt 0.125490 0.898039
vt 0.125490 0.937255
vt 0.188235 1.000000
vt 0.125490 1.000000
vt 0.000000 1.000000
vt 0.062745 1.000000
vt 0.000000 0.937255
vt 0.062745 0.937255
vt 0.000000 0.898039
vt 0.062745 0.898039
vt 0.000000 0.854902
vt 0.062745 0.854902
vt 0.000000 0.807843
vt 0.062745 0.807843
vt 0.000000 0.752941
vt 0.062745 0.752941
vt 0.000000 0.941176
vt 0.054902 0.878431
vt 0.054902 1.000000
vt 0.109804 0.941176
vt 0.172549 0.172549
vt 0.247059 0.188235
vt 0.250980 0.203922
vt 0.250980 0.200000
vt 0.250980 0.223529
vt 0.250980 0.239216
vt 0.250980 0.227451
vt 0.415686 0.498039
vt 0.494118 0.494118
vt 0.419608 0.254902
vt 0.305882 0.498039
vt 0.301961 0.258824
vt 0.262745 0.258824
vt 0.192157 0.180392
vt 0.196078 0.192157
vt 0.188235 0.188235
vt 0.188235 0.176471
vt 0.188235 0.184314
vt 0.203922 0.184314
vt 0.200000 0.200000
vt 0.196078 0.203922
vt 0.200000 0.192157
vt 0.196078 0.180392
vt 0.196078 0.172549
vt 0.200000 0.243137
vt 0.223529 0.239216
vt 0.239216 0.247059
vt 0.250980 0.207843
vt 0.235294 0.219608
vt 0.235294 0.196078
vt 0.188235 0.192157
vt 0.188235 0.207843
vt 0.180392 0.188235
vt 0.184314 0.196078
vt 0.180392 0.203922
vt 0.200000 0.215686
vt 0.180392 0.196078
vt 0.192157 0.219608
vt 0.180392 0.215686
vt 0.184314 0.211765
vt 0.180392 0.200000
vt 0.184314 0.223529
vt 0.180392 0.211765
vt 0.176471 0.223529
vt 0.172549 0.207843
vt 0.247059 0.235294
vt 0.231373 0.250980
vt 0.215686 0.250980
vt 0.207843 0.247059
vt 0.196078 0.239216
vt 0.215686 0.235294
vt 0.254902 0.254902
vt 0.329412 0.258824
vt 0.254902 0.498039
vt 0.333333 0.494118
vt 0.439216 0.494118
vt 0.462745 0.254902
vt 0.490196 0.258824
vt 0.200000 0.227451
vt 0.180392 0.231373
vt 0.184314 0.239216
vt 0.196078 0.247059
vt 0.188235 0.235294
vt 0.266667 0.498039
vt 0.141176 0.490196
vt 0.035294 0.450980
vt 0.023529 0.325490
vt 0.239216 0.427451
vt 0.121569 0.258824
vt 0.235294 0.305882
vt 0.184314 0.227451
vt 0.180392 0.227451
vt 0.176471 0.227451
vt 0.243137 0.188235
vt 0.180392 0.219608
s 1
usemtl stx_00
f 3/1/1 2/2/2 4/3/3
f 3/1/1 4/3/3 5/4/4
f 5/4/4 4/3/3 6/5/5
f 5/4/4 6/5/5 7/6/6
f 7/6/6 6/5/5 8/7/7
f 7/6/6 8/7/7 9/8/8
f 9/8/8 8/7/7 10/9/9
f 9/8/8 10/9/9 11/10/10
f 11/10/10 10/9/9 12/11/11
f 11/10/10 13/12/12 9/8/8
f 9/8/8 13/12/12 14/13/13
f 9/8/8 14/13/13 7/6/6
f 7/6/6 14/13/13 15/14/14
f 7/6/6 15/14/14 5/4/4
f 5/4/4 15/14/14 16/15/15
f 5/4/4 16/15/15 3/1/1
f 3/1/1 16/15/15 17/16/16
f 3/1/1 17/16/16 1/17/17
f 1/17/17 17/16/16 18/18/18
f 2/19/2 19/20/19 4/21/3
f 4/21/3 19/20/19 20/22/20
f 4/21/3 20/22/20 6/23/5
f 6/23/5 20/22/20 21/24/21
f 6/23/5 21/24/21 8/25/7
f 8/25/7 21/24/21 22/26/22
f 8/25/7 22/26/22 10/27/9
f 10/27/9 22/26/22 23/28/23
f 10/27/9 23/28/23 12/29/11
f 12/29/11 23/28/23 24/30/24
f 19/20/19 18/18/18 20/22/20
f 20/22/20 18/18/18 17/16/16
f 20/22/20 17/16/16 21/24/21
f 21/24/21 17/16/16 16/15/15
f 21/24/21 16/15/15 22/26/22
f 22/26/22 16/15/15 15/14/14
f 22/26/22 15/14/14 23/28/23
f 23/28/23 15/14/14 14/13/13
f 23/28/23 14/13/13 24/30/24
f 24/30/24 14/13/13 13/12/12
f 19/31/19 2/32/2 18/33/18
f 18/33/18 2/32/2 1/34/17
f 25/35/25 26/35/26 27/35/27
f 27/35/27 26/35/26 28/35/28
f 27/35/27 28/35/28 29/35/29
f 29/35/29 28/35/28 30/35/30
f 29/35/29 30/35/30 31/35/31
f 31/35/31 30/35/30 32/35/32
f 31/35/31 32/35/32 33/35/33
f 33/35/33 32/35/32 34/35/34
f 35/36/35 36/37/36 37/38/37
f 38/39/38 37/38/37 36/37/36
f 38/39/38 36/37/36 39/40/39
f 39/40/39 36/37/36 40/41/40
f 38/42/38 39/43/39 41/44/41
f 38/42/38 41/44/41 37/45/37
f 37/45/37 41/44/41 42/46/42
f 37/45/37 42/46/42 43/47/43
f 45/48/44 44/49/45 46/50/46
f 45/48/44 46/50/46 47/51/47
f 47/51/47 46/50/46 48/52/48
f 49/53/49 50/54/50 44/49/45
f 44/49/45 50/54/50 51/55/51
f 44/49/45 51/55/51 46/50/46
f 46/50/46 51/55/51 52/56/52
f 46/50/46 52/56/52 48/52/48
f 48/52/48 52/56/52 53/57/53
f 48/52/48 53/57/53 47/51/47
f 47/51/47 53/57/53 54/58/54
f 47/51/47 54/58/54 45/48/44
f 45/48/44 54/58/54 53/57/53
f 45/48/44 53/57/53 44/49/45
f 44/49/45 53/57/53 49/53/49
f 55/59/55 56/60/56 57/61/57
f 32/35/32 30/35/30 56/35/56
f 56/35/56 30/35/30 28/35/28
f 56/35/56 28/35/28 26/35/26
f 31/35/31 58/35/58 29/35/29
f 57/61/57 58/39/58 33/62/33
f 57/61/57 33/62/33 59/63/59
f 59/63/59 33/62/33 34/64/34
f 61/65/60 60/66/61 62/52/62
f 61/65/60 62/52/62 63/67/63
f 63/67/63 62/52/62 64/68/64
f 63/67/63 64/68/64 65/69/65
f 65/69/65 64/68/64 60/66/61
f 65/69/65 60/66/61 66/70/66
f 66/70/66 60/66/61 61/65/60
f 66/70/66 61/65/60 50/54/50
f 50/54/50 61/65/60 67/71/67
f 50/54/50 67/71/67 51/55/51
f 51/55/51 67/71/67 65/69/65
f 51/55/51 65/69/65 68/72/68
f 68/72/68 65/69/65 66/70/66
f 68/72/68 66/70/66 69/73/69
f 69/73/69 66/70/66 70/74/70
f 69/73/69 70/74/70 71/75/71
f 71/75/71 70/74/70 72/76/72
f 71/75/71 72/76/72 73/77/73
f 73/77/73 72/76/72 74/78/74
f 73/77/73 74/78/74 75/79/75
f 75/79/75 74/78/74 69/73/69
f 75/79/75 69/73/69 71/75/71
f 60/66/61 64/68/64 62/52/62
f 29/80/29 58/39/58 57/61/57
f 29/80/29 57/61/57 27/61/27
f 27/61/27 57/61/57 76/81/76
f 27/61/27 76/81/76 25/82/25
f 25/82/25 76/81/76 57/61/57
f 25/82/25 57/61/57 77/83/77
f 77/83/77 57/61/57 56/60/56
f 51/55/51 68/72/68 78/84/78
f 78/84/78 68/72/68 69/73/69
f 52/56/52 49/53/49 53/57/53
f 25/82/25 77/83/77 26/85/26
f 56/35/56 26/35/26 77/35/77
f 43/86/43 79/87/79 35/88/35
f 36/89/36 35/88/35 79/87/79
f 36/89/36 79/87/79 40/90/40
f 40/90/40 79/87/79 80/91/80
f 40/90/40 80/91/80 39/43/39
f 39/43/39 80/91/80 81/92/81
f 39/43/39 81/92/81 41/44/41
f 66/35/66 50/35/50 56/35/56
f 56/35/56 50/35/50 49/35/49
f 56/35/56 49/35/49 32/35/32
f 82/93/82 83/94/83 78/84/78
f 78/84/78 83/94/83 84/95/84
f 78/84/78 84/95/84 85/96/85
f 85/96/85 84/95/84 86/97/86
f 69/73/69 74/78/74 78/84/78
f 78/84/78 74/78/74 72/76/72
f 78/84/78 72/76/72 82/93/82
f 82/93/82 72/76/72 70/74/70
f 82/93/82 70/74/70 66/70/66
f 61/65/60 63/67/63 67/71/67
f 67/71/67 63/67/63 65/69/65
f 66/35/66 56/35/56 82/35/82
f 82/35/82 56/35/56 55/35/55
f 71/75/71 73/77/73 75/79/75
f 35/98/35 37/45/37 43/47/43
f 81/99/81 80/100/80 79/101/79
f 81/99/81 79/101/79 41/102/41
f 41/102/41 79/101/79 43/103/43
f 41/102/41 43/103/43 42/104/42
f 87/105/87 86/97/86 88/106/88
f 88/106/88 86/97/86 84/95/84
f 88/106/88 84/95/84 89/107/89
f 89/107/89 84/95/84 83/94/83
f 89/107/89 83/94/83 87/105/87
f 87/105/87 83/94/83 82/93/82
f 87/105/87 82/93/82 86/97/86
f 86/97/86 82/93/82 55/59/55
f 86/97/86 55/59/55 85/96/85
f 85/96/85 55/59/55 57/61/57
f 85/96/85 57/61/57 78/84/78
f 78/84/78 57/61/57 59/63/59
f 78/84/78 59/63/59 51/55/51
f 51/55/51 59/63/59 34/64/34
f 51/55/51 34/64/34 52/56/52
f 52/56/52 34/64/34 32/108/32
f 52/56/52 32/108/32 49/53/49
f 87/105/87 88/106/88 90/109/90
f 90/109/90 88/106/88 89/107/89
f 90/109/90 89/107/89 87/105/87
f 91/17/91 92/2/92 93/1/93
